# Blender 3.6.4
# www.blender.org
o Cylinder
v 0.000000 -0.750000 0.000000
v 0.000000 0.750000 0.000000
v 0.000000 -0.750000 -0.500000
v 0.000000 0.750000 -0.500000
v 0.074521 -0.750000 -0.494415
v 0.074521 0.750000 -0.494415
v 0.147378 -0.750000 -0.477786
v 0.147378 0.750000 -0.477786
v 0.216942 -0.750000 -0.450484
v 0.216942 0.750000 -0.450484
v 0.281660 -0.750000 -0.413119
v 0.281660 0.750000 -0.413119
v 0.340086 -0.750000 -0.366526
v 0.340086 0.750000 -0.366526
v 0.390916 -0.750000 -0.311745
v 0.390916 0.750000 -0.311745
v 0.433013 -0.750000 -0.250000
v 0.433013 0.750000 -0.250000
v 0.465437 -0.750000 -0.182671
v 0.465437 0.750000 -0.182671
v 0.487464 -0.750000 -0.111260
v 0.487464 0.750000 -0.111260
v 0.498602 -0.750000 -0.037365
v 0.498602 0.750000 -0.037365
v 0.498602 -0.750000 0.037365
v 0.498602 0.750000 0.037365
v 0.487464 -0.750000 0.111260
v 0.487464 0.750000 0.111260
v 0.465437 -0.750000 0.182671
v 0.465437 0.750000 0.182671
v 0.433013 -0.750000 0.250000
v 0.433013 0.750000 0.250000
v 0.390916 -0.750000 0.311745
v 0.390916 0.750000 0.311745
v 0.340086 -0.750000 0.366526
v 0.340086 0.750000 0.366526
v 0.281660 -0.750000 0.413119
v 0.281660 0.750000 0.413119
v 0.216942 -0.750000 0.450484
v 0.216942 0.750000 0.450484
v 0.147378 -0.750000 0.477786
v 0.147378 0.750000 0.477786
v 0.074521 -0.750000 0.494415
v 0.074521 0.750000 0.494415
v 0.000000 -0.750000 0.500000
v 0.000000 0.750000 0.500000
v -0.074521 -0.750000 0.494415
v -0.074521 0.750000 0.494415
v -0.147378 -0.750000 0.477786
v -0.147378 0.750000 0.477786
v -0.216942 -0.750000 0.450484
v -0.216942 0.750000 0.450484
v -0.281660 -0.750000 0.413119
v -0.281660 0.750000 0.413119
v -0.340086 -0.750000 0.366526
v -0.340086 0.750000 0.366526
v -0.390916 -0.750000 0.311745
v -0.390916 0.750000 0.311745
v -0.433013 -0.750000 0.250000
v -0.433013 0.750000 0.250000
v -0.465437 -0.750000 0.182671
v -0.465437 0.750000 0.182671
v -0.487464 -0.750000 0.111260
v -0.487464 0.750000 0.111260
v -0.498602 -0.750000 0.037365
v -0.498602 0.750000 0.037365
v -0.498602 -0.750000 -0.037365
v -0.498602 0.750000 -0.037365
v -0.487464 -0.750000 -0.111260
v -0.487464 0.750000 -0.111260
v -0.465437 -0.750000 -0.182671
v -0.465437 0.750000 -0.182671
v -0.433013 -0.750000 -0.250000
v -0.433013 0.750000 -0.250000
v -0.390916 -0.750000 -0.311745
v -0.390916 0.750000 -0.311745
v -0.340086 -0.750000 -0.366526
v -0.340086 0.750000 -0.366526
v -0.281660 -0.750000 -0.413119
v -0.281660 0.750000 -0.413119
v -0.216942 -0.750000 -0.450484
v -0.216942 0.750000 -0.450484
v -0.147378 -0.750000 -0.477786
v -0.147378 0.750000 -0.477786
v -0.074521 -0.750000 -0.494415
v -0.074521 0.750000 -0.494415
vn -0.0000 -1.0000 -0.0000
vn -0.0000 1.0000 -0.0000
vn -0.0000 -0.0000 -1.0000
vn 0.1490 -0.0000 -0.9888
vn 0.2948 -0.0000 -0.9556
vn 0.4339 -0.0000 -0.9010
vn 0.5633 -0.0000 -0.8262
vn 0.6802 -0.0000 -0.7331
vn 0.7818 -0.0000 -0.6235
vn 0.8660 -0.0000 -0.5000
vn 0.9309 -0.0000 -0.3653
vn 0.9749 -0.0000 -0.2225
vn 0.9972 -0.0000 -0.0747
vn 0.9972 -0.0000 0.0747
vn 0.9749 -0.0000 0.2225
vn 0.9309 -0.0000 0.3653
vn 0.8660 -0.0000 0.5000
vn 0.7818 -0.0000 0.6235
vn 0.6802 -0.0000 0.7331
vn 0.5633 -0.0000 0.8262
vn 0.4339 -0.0000 0.9010
vn 0.2948 -0.0000 0.9556
vn 0.1490 -0.0000 0.9888
vn -0.0000 -0.0000 1.0000
vn -0.1490 -0.0000 0.9888
vn -0.2948 -0.0000 0.9556
vn -0.4339 -0.0000 0.9010
vn -0.5633 -0.0000 0.8262
vn -0.6802 -0.0000 0.7331
vn -0.7818 -0.0000 0.6235
vn -0.8660 -0.0000 0.5000
vn -0.9309 -0.0000 0.3653
vn -0.9749 -0.0000 0.2225
vn -0.9972 -0.0000 0.0747
vn -0.9972 -0.0000 -0.0747
vn -0.9749 -0.0000 -0.2225
vn -0.9309 -0.0000 -0.3653
vn -0.8660 -0.0000 -0.5000
vn -0.7818 -0.0000 -0.6235
vn -0.6802 -0.0000 -0.7331
vn -0.5633 -0.0000 -0.8262
vn -0.4339 -0.0000 -0.9010
vn -0.2948 -0.0000 -0.9556
vn -0.1490 -0.0000 -0.9888
vt 0.750000 0.250000
vt 0.750000 0.490000
vt 0.785770 0.487319
vt 0.250000 0.250000
vt 0.285770 0.487319
vt 0.250000 0.490000
vt 1.000000 1.000000
vt 0.976190 0.500000
vt 1.000000 0.500000
vt 0.820741 0.479337
vt 0.320741 0.479337
vt 0.976190 1.000000
vt 0.952381 0.500000
vt 0.854132 0.466233
vt 0.354132 0.466233
vt 0.952381 1.000000
vt 0.928571 0.500000
vt 0.885197 0.448297
vt 0.385197 0.448297
vt 0.928571 1.000000
vt 0.904762 0.500000
vt 0.913242 0.425932
vt 0.413241 0.425932
vt 0.904762 1.000000
vt 0.880952 0.500000
vt 0.937640 0.399638
vt 0.437640 0.399638
vt 0.880952 1.000000
vt 0.857143 0.500000
vt 0.957846 0.370000
vt 0.457846 0.370000
vt 0.857143 1.000000
vt 0.833333 0.500000
vt 0.973410 0.337682
vt 0.473410 0.337682
vt 0.833333 1.000000
vt 0.809524 0.500000
vt 0.983983 0.303405
vt 0.483983 0.303405
vt 0.809524 1.000000
vt 0.785714 0.500000
vt 0.989329 0.267935
vt 0.489329 0.267935
vt 0.785714 1.000000
vt 0.761904 0.500000
vt 0.989329 0.232065
vt 0.489329 0.232065
vt 0.761904 1.000000
vt 0.738095 0.500000
vt 0.983983 0.196595
vt 0.483983 0.196595
vt 0.738095 1.000000
vt 0.714285 0.500000
vt 0.973410 0.162318
vt 0.473410 0.162318
vt 0.714285 1.000000
vt 0.690476 0.500000
vt 0.957846 0.130000
vt 0.457846 0.130000
vt 0.690476 1.000000
vt 0.666666 0.500000
vt 0.937640 0.100362
vt 0.437640 0.100362
vt 0.666666 1.000000
vt 0.642857 0.500000
vt 0.913242 0.074068
vt 0.413241 0.074068
vt 0.642857 1.000000
vt 0.619047 0.500000
vt 0.885197 0.051703
vt 0.385197 0.051703
vt 0.619047 1.000000
vt 0.595238 0.500000
vt 0.854132 0.033767
vt 0.354132 0.033767
vt 0.595238 1.000000
vt 0.571428 0.500000
vt 0.820741 0.020663
vt 0.320741 0.020663
vt 0.571428 1.000000
vt 0.547619 0.500000
vt 0.785770 0.012681
vt 0.285770 0.012681
vt 0.547619 1.000000
vt 0.523809 0.500000
vt 0.750000 0.010000
vt 0.250000 0.010000
vt 0.523809 1.000000
vt 0.499999 0.500000
vt 0.714230 0.012681
vt 0.214230 0.012681
vt 0.499999 1.000000
vt 0.476190 0.500000
vt 0.679259 0.020663
vt 0.179259 0.020663
vt 0.476190 1.000000
vt 0.452380 0.500000
vt 0.645868 0.033767
vt 0.145868 0.033767
vt 0.452380 1.000000
vt 0.428571 0.500000
vt 0.614803 0.051703
vt 0.114803 0.051703
vt 0.428571 1.000000
vt 0.404761 0.500000
vt 0.586758 0.074068
vt 0.086759 0.074068
vt 0.404761 1.000000
vt 0.380952 0.500000
vt 0.562360 0.100362
vt 0.062360 0.100362
vt 0.380952 1.000000
vt 0.357142 0.500000
vt 0.542154 0.130000
vt 0.042154 0.130000
vt 0.357142 1.000000
vt 0.333333 0.500000
vt 0.526590 0.162318
vt 0.026590 0.162318
vt 0.333333 1.000000
vt 0.309523 0.500000
vt 0.516017 0.196595
vt 0.016017 0.196595
vt 0.309523 1.000000
vt 0.285714 0.500000
vt 0.510671 0.232065
vt 0.010671 0.232065
vt 0.285714 1.000000
vt 0.261904 0.500000
vt 0.510671 0.267935
vt 0.010671 0.267935
vt 0.261904 1.000000
vt 0.238095 0.500000
vt 0.516017 0.303405
vt 0.016017 0.303405
vt 0.238095 1.000000
vt 0.214285 0.500000
vt 0.526590 0.337682
vt 0.026590 0.337682
vt 0.214285 1.000000
vt 0.190476 0.500000
vt 0.542154 0.370000
vt 0.042154 0.370000
vt 0.190476 1.000000
vt 0.166666 0.500000
vt 0.562360 0.399638
vt 0.062360 0.399638
vt 0.166666 1.000000
vt 0.142857 0.500000
vt 0.586758 0.425932
vt 0.086759 0.425932
vt 0.142857 1.000000
vt 0.119047 0.500000
vt 0.614803 0.448297
vt 0.114803 0.448297
vt 0.119047 1.000000
vt 0.095238 0.500000
vt 0.645868 0.466233
vt 0.145868 0.466233
vt 0.095238 1.000000
vt 0.071428 0.500000
vt 0.679259 0.479337
vt 0.179259 0.479337
vt 0.071428 1.000000
vt 0.047619 0.500000
vt 0.714230 0.487319
vt 0.214230 0.487319
vt 0.047619 1.000000
vt 0.023809 0.500000
vt 0.023809 1.000000
vt -0.000001 0.500000
vt -0.000001 1.000000
s 1
f 1/1/1 3/2/1 5/3/1
f 2/4/2 6/5/2 4/6/2
f 4/7/3 5/8/4 3/9/3
f 1/1/1 5/3/1 7/10/1
f 2/4/2 8/11/2 6/5/2
f 6/12/4 7/13/5 5/8/4
f 1/1/1 7/10/1 9/14/1
f 2/4/2 10/15/2 8/11/2
f 8/16/5 9/17/6 7/13/5
f 1/1/1 9/14/1 11/18/1
f 2/4/2 12/19/2 10/15/2
f 10/20/6 11/21/7 9/17/6
f 1/1/1 11/18/1 13/22/1
f 2/4/2 14/23/2 12/19/2
f 12/24/7 13/25/8 11/21/7
f 1/1/1 13/22/1 15/26/1
f 2/4/2 16/27/2 14/23/2
f 14/28/8 15/29/9 13/25/8
f 1/1/1 15/26/1 17/30/1
f 2/4/2 18/31/2 16/27/2
f 16/32/9 17/33/10 15/29/9
f 1/1/1 17/30/1 19/34/1
f 2/4/2 20/35/2 18/31/2
f 18/36/10 19/37/11 17/33/10
f 1/1/1 19/34/1 21/38/1
f 2/4/2 22/39/2 20/35/2
f 20/40/11 21/41/12 19/37/11
f 1/1/1 21/38/1 23/42/1
f 2/4/2 24/43/2 22/39/2
f 22/44/12 23/45/13 21/41/12
f 1/1/1 23/42/1 25/46/1
f 2/4/2 26/47/2 24/43/2
f 24/48/13 25/49/14 23/45/13
f 1/1/1 25/46/1 27/50/1
f 2/4/2 28/51/2 26/47/2
f 26/52/14 27/53/15 25/49/14
f 1/1/1 27/50/1 29/54/1
f 2/4/2 30/55/2 28/51/2
f 28/56/15 29/57/16 27/53/15
f 1/1/1 29/54/1 31/58/1
f 2/4/2 32/59/2 30/55/2
f 30/60/16 31/61/17 29/57/16
f 1/1/1 31/58/1 33/62/1
f 2/4/2 34/63/2 32/59/2
f 32/64/17 33/65/18 31/61/17
f 1/1/1 33/62/1 35/66/1
f 2/4/2 36/67/2 34/63/2
f 34/68/18 35/69/19 33/65/18
f 1/1/1 35/66/1 37/70/1
f 2/4/2 38/71/2 36/67/2
f 36/72/19 37/73/20 35/69/19
f 1/1/1 37/70/1 39/74/1
f 2/4/2 40/75/2 38/71/2
f 38/76/20 39/77/21 37/73/20
f 1/1/1 39/74/1 41/78/1
f 2/4/2 42/79/2 40/75/2
f 40/80/21 41/81/22 39/77/21
f 1/1/1 41/78/1 43/82/1
f 2/4/2 44/83/2 42/79/2
f 42/84/22 43/85/23 41/81/22
f 1/1/1 43/82/1 45/86/1
f 2/4/2 46/87/2 44/83/2
f 44/88/23 45/89/24 43/85/23
f 1/1/1 45/86/1 47/90/1
f 2/4/2 48/91/2 46/87/2
f 46/92/24 47/93/25 45/89/24
f 1/1/1 47/90/1 49/94/1
f 2/4/2 50/95/2 48/91/2
f 48/96/25 49/97/26 47/93/25
f 1/1/1 49/94/1 51/98/1
f 2/4/2 52/99/2 50/95/2
f 50/100/26 51/101/27 49/97/26
f 1/1/1 51/98/1 53/102/1
f 2/4/2 54/103/2 52/99/2
f 52/104/27 53/105/28 51/101/27
f 1/1/1 53/102/1 55/106/1
f 2/4/2 56/107/2 54/103/2
f 54/108/28 55/109/29 53/105/28
f 1/1/1 55/106/1 57/110/1
f 2/4/2 58/111/2 56/107/2
f 56/112/29 57/113/30 55/109/29
f 1/1/1 57/110/1 59/114/1
f 2/4/2 60/115/2 58/111/2
f 58/116/30 59/117/31 57/113/30
f 1/1/1 59/114/1 61/118/1
f 2/4/2 62/119/2 60/115/2
f 60/120/31 61/121/32 59/117/31
f 1/1/1 61/118/1 63/122/1
f 2/4/2 64/123/2 62/119/2
f 62/124/32 63/125/33 61/121/32
f 1/1/1 63/122/1 65/126/1
f 2/4/2 66/127/2 64/123/2
f 64/128/33 65/129/34 63/125/33
f 1/1/1 65/126/1 67/130/1
f 2/4/2 68/131/2 66/127/2
f 66/132/34 67/133/35 65/129/34
f 1/1/1 67/130/1 69/134/1
f 2/4/2 70/135/2 68/131/2
f 68/136/35 69/137/36 67/133/35
f 1/1/1 69/134/1 71/138/1
f 2/4/2 72/139/2 70/135/2
f 70/140/36 71/141/37 69/137/36
f 1/1/1 71/138/1 73/142/1
f 2/4/2 74/143/2 72/139/2
f 72/144/37 73/145/38 71/141/37
f 1/1/1 73/142/1 75/146/1
f 2/4/2 76/147/2 74/143/2
f 74/148/38 75/149/39 73/145/38
f 1/1/1 75/146/1 77/150/1
f 2/4/2 78/151/2 76/147/2
f 76/152/39 77/153/40 75/149/39
f 1/1/1 77/150/1 79/154/1
f 2/4/2 80/155/2 78/151/2
f 78/156/40 79/157/41 77/153/40
f 1/1/1 79/154/1 81/158/1
f 2/4/2 82/159/2 80/155/2
f 80/160/41 81/161/42 79/157/41
f 1/1/1 81/158/1 83/162/1
f 2/4/2 84/163/2 82/159/2
f 82/164/42 83/165/43 81/161/42
f 1/1/1 83/162/1 85/166/1
f 2/4/2 86/167/2 84/163/2
f 84/168/43 85/169/44 83/165/43
f 1/1/1 85/166/1 3/2/1
f 2/4/2 4/6/2 86/167/2
f 86/170/44 3/171/3 85/169/44
f 4/7/3 6/12/4 5/8/4
f 6/12/4 8/16/5 7/13/5
f 8/16/5 10/20/6 9/17/6
f 10/20/6 12/24/7 11/21/7
f 12/24/7 14/28/8 13/25/8
f 14/28/8 16/32/9 15/29/9
f 16/32/9 18/36/10 17/33/10
f 18/36/10 20/40/11 19/37/11
f 20/40/11 22/44/12 21/41/12
f 22/44/12 24/48/13 23/45/13
f 24/48/13 26/52/14 25/49/14
f 26/52/14 28/56/15 27/53/15
f 28/56/15 30/60/16 29/57/16
f 30/60/16 32/64/17 31/61/17
f 32/64/17 34/68/18 33/65/18
f 34/68/18 36/72/19 35/69/19
f 36/72/19 38/76/20 37/73/20
f 38/76/20 40/80/21 39/77/21
f 40/80/21 42/84/22 41/81/22
f 42/84/22 44/88/23 43/85/23
f 44/88/23 46/92/24 45/89/24
f 46/92/24 48/96/25 47/93/25
f 48/96/25 50/100/26 49/97/26
f 50/100/26 52/104/27 51/101/27
f 52/104/27 54/108/28 53/105/28
f 54/108/28 56/112/29 55/109/29
f 56/112/29 58/116/30 57/113/30
f 58/116/30 60/120/31 59/117/31
f 60/120/31 62/124/32 61/121/32
f 62/124/32 64/128/33 63/125/33
f 64/128/33 66/132/34 65/129/34
f 66/132/34 68/136/35 67/133/35
f 68/136/35 70/140/36 69/137/36
f 70/140/36 72/144/37 71/141/37
f 72/144/37 74/148/38 73/145/38
f 74/148/38 76/152/39 75/149/39
f 76/152/39 78/156/40 77/153/40
f 78/156/40 80/160/41 79/157/41
f 80/160/41 82/164/42 81/161/42
f 82/164/42 84/168/43 83/165/43
f 84/168/43 86/170/44 85/169/44
f 86/170/44 4/172/3 3/171/3
