# Blender 4.2.0
# www.blender.org
mtllib static_book.mtl
o 61HqMVDMHyL._AC_UF1000,1000_QL80_
v -0.383000 0.491000 0.500000
v 0.383000 0.491000 0.500000
v -0.383000 0.491000 -0.500000
v 0.383000 0.491000 -0.500000
vn -0.0000 1.0000 -0.0000
vt 0.000000 0.000000
vt 1.000000 0.000000
vt 1.000000 1.000000
vt 0.000000 1.000000
s 0
usemtl Material.001
f 1/1/1 2/2/1 4/3/1 3/4/1
o Plane
v -0.360000 0.000000 0.480000
v 0.360000 0.000000 0.480000
v -0.360000 0.000000 -0.480000
v 0.360000 0.000000 -0.480000
v -0.360000 0.010000 0.480000
v 0.360000 0.010000 0.480000
v -0.360000 0.010000 -0.480000
v 0.360000 0.010000 -0.480000
v -0.360000 0.020000 0.480000
v 0.360000 0.020000 0.480000
v -0.360000 0.020000 -0.480000
v 0.360000 0.020000 -0.480000
v -0.360000 0.030000 0.480000
v 0.360000 0.030000 0.480000
v -0.360000 0.030000 -0.480000
v 0.360000 0.030000 -0.480000
v -0.360000 0.040000 0.480000
v 0.360000 0.040000 0.480000
v -0.360000 0.040000 -0.480000
v 0.360000 0.040000 -0.480000
v -0.360000 0.050000 0.480000
v 0.360000 0.050000 0.480000
v -0.360000 0.050000 -0.480000
v 0.360000 0.050000 -0.480000
v -0.360000 0.060000 0.480000
v 0.360000 0.060000 0.480000
v -0.360000 0.060000 -0.480000
v 0.360000 0.060000 -0.480000
v -0.360000 0.070000 0.480000
v 0.360000 0.070000 0.480000
v -0.360000 0.070000 -0.480000
v 0.360000 0.070000 -0.480000
v -0.360000 0.080000 0.480000
v 0.360000 0.080000 0.480000
v -0.360000 0.080000 -0.480000
v 0.360000 0.080000 -0.480000
v -0.360000 0.090000 0.480000
v 0.360000 0.090000 0.480000
v -0.360000 0.090000 -0.480000
v 0.360000 0.090000 -0.480000
v -0.360000 0.100000 0.480000
v 0.360000 0.100000 0.480000
v -0.360000 0.100000 -0.480000
v 0.360000 0.100000 -0.480000
v -0.360000 0.110000 0.480000
v 0.360000 0.110000 0.480000
v -0.360000 0.110000 -0.480000
v 0.360000 0.110000 -0.480000
v -0.360000 0.120000 0.480000
v 0.360000 0.120000 0.480000
v -0.360000 0.120000 -0.480000
v 0.360000 0.120000 -0.480000
v -0.360000 0.130000 0.480000
v 0.360000 0.130000 0.480000
v -0.360000 0.130000 -0.480000
v 0.360000 0.130000 -0.480000
v -0.360000 0.140000 0.480000
v 0.360000 0.140000 0.480000
v -0.360000 0.140000 -0.480000
v 0.360000 0.140000 -0.480000
v -0.360000 0.150000 0.480000
v 0.360000 0.150000 0.480000
v -0.360000 0.150000 -0.480000
v 0.360000 0.150000 -0.480000
v -0.360000 0.160000 0.480000
v 0.360000 0.160000 0.480000
v -0.360000 0.160000 -0.480000
v 0.360000 0.160000 -0.480000
v -0.360000 0.170000 0.480000
v 0.360000 0.170000 0.480000
v -0.360000 0.170000 -0.480000
v 0.360000 0.170000 -0.480000
v -0.360000 0.180000 0.480000
v 0.360000 0.180000 0.480000
v -0.360000 0.180000 -0.480000
v 0.360000 0.180000 -0.480000
v -0.360000 0.190000 0.480000
v 0.360000 0.190000 0.480000
v -0.360000 0.190000 -0.480000
v 0.360000 0.190000 -0.480000
v -0.360000 0.200000 0.480000
v 0.360000 0.200000 0.480000
v -0.360000 0.200000 -0.480000
v 0.360000 0.200000 -0.480000
v -0.360000 0.210000 0.480000
v 0.360000 0.210000 0.480000
v -0.360000 0.210000 -0.480000
v 0.360000 0.210000 -0.480000
v -0.360000 0.220000 0.480000
v 0.360000 0.220000 0.480000
v -0.360000 0.220000 -0.480000
v 0.360000 0.220000 -0.480000
v -0.360000 0.230000 0.480000
v 0.360000 0.230000 0.480000
v -0.360000 0.230000 -0.480000
v 0.360000 0.230000 -0.480000
v -0.360000 0.240000 0.480000
v 0.360000 0.240000 0.480000
v -0.360000 0.240000 -0.480000
v 0.360000 0.240000 -0.480000
v -0.360000 0.250000 0.480000
v 0.360000 0.250000 0.480000
v -0.360000 0.250000 -0.480000
v 0.360000 0.250000 -0.480000
v -0.360000 0.260000 0.480000
v 0.360000 0.260000 0.480000
v -0.360000 0.260000 -0.480000
v 0.360000 0.260000 -0.480000
v -0.360000 0.270000 0.480000
v 0.360000 0.270000 0.480000
v -0.360000 0.270000 -0.480000
v 0.360000 0.270000 -0.480000
v -0.360000 0.280000 0.480000
v 0.360000 0.280000 0.480000
v -0.360000 0.280000 -0.480000
v 0.360000 0.280000 -0.480000
v -0.360000 0.290000 0.480000
v 0.360000 0.290000 0.480000
v -0.360000 0.290000 -0.480000
v 0.360000 0.290000 -0.480000
v -0.360000 0.300000 0.480000
v 0.360000 0.300000 0.480000
v -0.360000 0.300000 -0.480000
v 0.360000 0.300000 -0.480000
v -0.360000 0.310000 0.480000
v 0.360000 0.310000 0.480000
v -0.360000 0.310000 -0.480000
v 0.360000 0.310000 -0.480000
v -0.360000 0.320000 0.480000
v 0.360000 0.320000 0.480000
v -0.360000 0.320000 -0.480000
v 0.360000 0.320000 -0.480000
v -0.360000 0.330000 0.480000
v 0.360000 0.330000 0.480000
v -0.360000 0.330000 -0.480000
v 0.360000 0.330000 -0.480000
v -0.360000 0.340000 0.480000
v 0.360000 0.340000 0.480000
v -0.360000 0.340000 -0.480000
v 0.360000 0.340000 -0.480000
v -0.360000 0.350000 0.480000
v 0.360000 0.350000 0.480000
v -0.360000 0.350000 -0.480000
v 0.360000 0.350000 -0.480000
v -0.360000 0.360000 0.480000
v 0.360000 0.360000 0.480000
v -0.360000 0.360000 -0.480000
v 0.360000 0.360000 -0.480000
v -0.360000 0.370000 0.480000
v 0.360000 0.370000 0.480000
v -0.360000 0.370000 -0.480000
v 0.360000 0.370000 -0.480000
v -0.360000 0.380000 0.480000
v 0.360000 0.380000 0.480000
v -0.360000 0.380000 -0.480000
v 0.360000 0.380000 -0.480000
v -0.360000 0.390000 0.480000
v 0.360000 0.390000 0.480000
v -0.360000 0.390000 -0.480000
v 0.360000 0.390000 -0.480000
v -0.360000 0.400000 0.480000
v 0.360000 0.400000 0.480000
v -0.360000 0.400000 -0.480000
v 0.360000 0.400000 -0.480000
v -0.360000 0.410000 0.480000
v 0.360000 0.410000 0.480000
v -0.360000 0.410000 -0.480000
v 0.360000 0.410000 -0.480000
v -0.360000 0.420000 0.480000
v 0.360000 0.420000 0.480000
v -0.360000 0.420000 -0.480000
v 0.360000 0.420000 -0.480000
v -0.360000 0.430000 0.480000
v 0.360000 0.430000 0.480000
v -0.360000 0.430000 -0.480000
v 0.360000 0.430000 -0.480000
v -0.360000 0.440000 0.480000
v 0.360000 0.440000 0.480000
v -0.360000 0.440000 -0.480000
v 0.360000 0.440000 -0.480000
v -0.360000 0.450000 0.480000
v 0.360000 0.450000 0.480000
v -0.360000 0.450000 -0.480000
v 0.360000 0.450000 -0.480000
v -0.360000 0.460000 0.480000
v 0.360000 0.460000 0.480000
v -0.360000 0.460000 -0.480000
v 0.360000 0.460000 -0.480000
v -0.360000 0.470000 0.480000
v 0.360000 0.470000 0.480000
v -0.360000 0.470000 -0.480000
v 0.360000 0.470000 -0.480000
v -0.360000 0.480000 0.480000
v 0.360000 0.480000 0.480000
v -0.360000 0.480000 -0.480000
v 0.360000 0.480000 -0.480000
vn -0.0000 1.0000 -0.0000
vt 0.000000 0.000000
vt 1.000000 0.000000
vt 1.000000 1.000000
vt 0.000000 1.000000
s 0
f 5/5/2 6/6/2 8/7/2 7/8/2
f 9/5/2 10/6/2 12/7/2 11/8/2
f 13/5/2 14/6/2 16/7/2 15/8/2
f 17/5/2 18/6/2 20/7/2 19/8/2
f 21/5/2 22/6/2 24/7/2 23/8/2
f 25/5/2 26/6/2 28/7/2 27/8/2
f 29/5/2 30/6/2 32/7/2 31/8/2
f 33/5/2 34/6/2 36/7/2 35/8/2
f 37/5/2 38/6/2 40/7/2 39/8/2
f 41/5/2 42/6/2 44/7/2 43/8/2
f 45/5/2 46/6/2 48/7/2 47/8/2
f 49/5/2 50/6/2 52/7/2 51/8/2
f 53/5/2 54/6/2 56/7/2 55/8/2
f 57/5/2 58/6/2 60/7/2 59/8/2
f 61/5/2 62/6/2 64/7/2 63/8/2
f 65/5/2 66/6/2 68/7/2 67/8/2
f 69/5/2 70/6/2 72/7/2 71/8/2
f 73/5/2 74/6/2 76/7/2 75/8/2
f 77/5/2 78/6/2 80/7/2 79/8/2
f 81/5/2 82/6/2 84/7/2 83/8/2
f 85/5/2 86/6/2 88/7/2 87/8/2
f 89/5/2 90/6/2 92/7/2 91/8/2
f 93/5/2 94/6/2 96/7/2 95/8/2
f 97/5/2 98/6/2 100/7/2 99/8/2
f 101/5/2 102/6/2 104/7/2 103/8/2
f 105/5/2 106/6/2 108/7/2 107/8/2
f 109/5/2 110/6/2 112/7/2 111/8/2
f 113/5/2 114/6/2 116/7/2 115/8/2
f 117/5/2 118/6/2 120/7/2 119/8/2
f 121/5/2 122/6/2 124/7/2 123/8/2
f 125/5/2 126/6/2 128/7/2 127/8/2
f 129/5/2 130/6/2 132/7/2 131/8/2
f 133/5/2 134/6/2 136/7/2 135/8/2
f 137/5/2 138/6/2 140/7/2 139/8/2
f 141/5/2 142/6/2 144/7/2 143/8/2
f 145/5/2 146/6/2 148/7/2 147/8/2
f 149/5/2 150/6/2 152/7/2 151/8/2
f 153/5/2 154/6/2 156/7/2 155/8/2
f 157/5/2 158/6/2 160/7/2 159/8/2
f 161/5/2 162/6/2 164/7/2 163/8/2
f 165/5/2 166/6/2 168/7/2 167/8/2
f 169/5/2 170/6/2 172/7/2 171/8/2
f 173/5/2 174/6/2 176/7/2 175/8/2
f 177/5/2 178/6/2 180/7/2 179/8/2
f 181/5/2 182/6/2 184/7/2 183/8/2
f 185/5/2 186/6/2 188/7/2 187/8/2
f 189/5/2 190/6/2 192/7/2 191/8/2
f 193/5/2 194/6/2 196/7/2 195/8/2
f 197/5/2 198/6/2 200/7/2 199/8/2
